<svg xmlns="http://www.w3.org/2000/svg" viewBox="0 0 64 64">
  <rect width="64" height="64" rx="14" fill="#142b1e"/>
  <g transform="rotate(-5 32 34)">
    <!-- hoofd (silhouet) -->
    <path d="M32 21 C24.5 21 21 27 21 33.5 C21 40 22.5 48 26.5 52 C29.5 55 34.5 55 37.5 52 C41.5 48 43 40 43 33.5 C43 27 39.5 21 32 21 Z"
          fill="#fbf6ea"/>
    <!-- blonde baard -->
    <path d="M23.6 41.5 C25.5 44.5 28.5 45.5 32 45.5 C35.5 45.5 38.5 44.5 40.4 41.5
             C40.6 45.5 39.6 49.8 37.5 52 C34.5 55 29.5 55 26.5 52 C24.4 49.8 23.4 45.5 23.6 41.5 Z"
          fill="#e8b64a"/>
    <!-- mond in de baard -->
    <path d="M29.2 48.2 Q32 50.2 34.8 48.2" fill="none" stroke="#142b1e" stroke-width="1.9" stroke-linecap="round"/>
    <!-- feesthoedje -->
    <path d="M32 6.5 L41.5 23.5 L22.5 23.5 Z" fill="#f2b544"/>
    <circle cx="32" cy="6" r="2.8" fill="#ff6f4d"/>
    <!-- bril -->
    <circle cx="26.6" cy="32.5" r="4.3" fill="none" stroke="#142b1e" stroke-width="2.2"/>
    <circle cx="37.4" cy="32.5" r="4.3" fill="none" stroke="#142b1e" stroke-width="2.2"/>
    <line x1="30.9" y1="32.5" x2="33.1" y2="32.5" stroke="#142b1e" stroke-width="2.2"/>
  </g>
</svg>
